{"buffers":[{"uri":"new_weeder.bin","byteLength":746940}],"asset":{"version":"2.0","generator":"gltfpack 0.16"},"bufferViews":[{"buffer":0,"byteOffset":0,"byteLength":274020,"byteStride":12,"target":34962},{"buffer":0,"byteOffset":274020,"byteLength":274020,"byteStride":12,"target":34962},{"buffer":0,"byteOffset":548040,"byteLength":198900,"target":34963}],"accessors":[{"bufferView":0,"byteOffset":0,"componentType":5126,"count":1237,"type":"VEC3","min":[-1.89999616,-41.4327965,-23.8718605],"max":[52.0999947,6.26719332,24.12813]},{"bufferView":1,"byteOffset":0,"componentType":5126,"count":1237,"type":"VEC3"},{"bufferView":2,"byteOffset":0,"componentType":5123,"count":2682,"type":"SCALAR"},{"bufferView":0,"byteOffset":14844,"componentType":5126,"count":468,"type":"VEC3","min":[9.8999939,-46.7727966,-17.6718616],"max":[14.2999935,-41.4327965,-12.371871]},{"bufferView":1,"byteOffset":14844,"componentType":5126,"count":468,"type":"VEC3"},{"bufferView":2,"byteOffset":5364,"componentType":5123,"count":1392,"type":"SCALAR"},{"bufferView":0,"byteOffset":20460,"componentType":5126,"count":468,"type":"VEC3","min":[35.8999939,-46.7727966,-17.6718616],"max":[40.2999954,-41.4327965,-12.371871]},{"bufferView":1,"byteOffset":20460,"componentType":5126,"count":468,"type":"VEC3"},{"bufferView":2,"byteOffset":8148,"componentType":5123,"count":1392,"type":"SCALAR"},{"bufferView":0,"byteOffset":26076,"componentType":5126,"count":468,"type":"VEC3","min":[9.8999939,-46.7727966,12.6281395],"max":[14.2999935,-41.4327965,17.9281292]},{"bufferView":1,"byteOffset":26076,"componentType":5126,"count":468,"type":"VEC3"},{"bufferView":2,"byteOffset":10932,"componentType":5123,"count":1392,"type":"SCALAR"},{"bufferView":0,"byteOffset":31692,"componentType":5126,"count":468,"type":"VEC3","min":[35.8999939,-46.7727966,12.6281395],"max":[40.2999954,-41.4327965,17.9281292]},{"bufferView":1,"byteOffset":31692,"componentType":5126,"count":468,"type":"VEC3"},{"bufferView":2,"byteOffset":13716,"componentType":5123,"count":1392,"type":"SCALAR"},{"bufferView":0,"byteOffset":37308,"componentType":5126,"count":216,"type":"VEC3","min":[28.4499931,-39.532795,-3.37186074],"max":[38.9499931,-31.5327969,3.62812948]},{"bufferView":1,"byteOffset":37308,"componentType":5126,"count":216,"type":"VEC3"},{"bufferView":2,"byteOffset":16500,"componentType":5123,"count":1284,"type":"SCALAR"},{"bufferView":0,"byteOffset":39900,"componentType":5126,"count":296,"type":"VEC3","min":[3.99999356,7.76720333,-2.86904073],"max":[13.4943933,11.2672033,3.12531948]},{"bufferView":1,"byteOffset":39900,"componentType":5126,"count":296,"type":"VEC3"},{"bufferView":2,"byteOffset":19068,"componentType":5123,"count":852,"type":"SCALAR"},{"bufferView":0,"byteOffset":43452,"componentType":5126,"count":140,"type":"VEC3","min":[4.99579334,4.56720304,-2.59373069],"max":[5.79418373,7.76720333,-1.79454064]},{"bufferView":1,"byteOffset":43452,"componentType":5126,"count":140,"type":"VEC3"},{"bufferView":2,"byteOffset":20772,"componentType":5123,"count":408,"type":"SCALAR"},{"bufferView":0,"byteOffset":45132,"componentType":5126,"count":140,"type":"VEC3","min":[4.99579334,4.56720304,2.0508194],"max":[5.79418373,7.76720333,2.85000944]},{"bufferView":1,"byteOffset":45132,"componentType":5126,"count":140,"type":"VEC3"},{"bufferView":2,"byteOffset":21588,"componentType":5123,"count":408,"type":"SCALAR"},{"bufferView":0,"byteOffset":46812,"componentType":5126,"count":140,"type":"VEC3","min":[13.5016031,4.56720304,-0.271450639],"max":[14.2999935,7.76720333,0.527729392]},{"bufferView":1,"byteOffset":46812,"componentType":5126,"count":140,"type":"VEC3"},{"bufferView":2,"byteOffset":22404,"componentType":5123,"count":408,"type":"SCALAR"},{"bufferView":0,"byteOffset":48492,"componentType":5126,"count":3106,"type":"VEC3","min":[-6.18552303e-06,-24.5827961,-8.8718605],"max":[13.9999943,3.41720319,9.12812901]},{"bufferView":1,"byteOffset":48492,"componentType":5126,"count":3106,"type":"VEC3"},{"bufferView":2,"byteOffset":23220,"componentType":5123,"count":18288,"type":"SCALAR"},{"bufferView":0,"byteOffset":85764,"componentType":5126,"count":576,"type":"VEC3","min":[10.2503538,-45.8066368,-19.2718601],"max":[13.9496336,-40.2627983,-8.0718708]},{"bufferView":1,"byteOffset":85764,"componentType":5126,"count":576,"type":"VEC3"},{"bufferView":2,"byteOffset":59796,"componentType":5123,"count":1668,"type":"SCALAR"},{"bufferView":0,"byteOffset":92676,"componentType":5126,"count":576,"type":"VEC3","min":[36.2503548,-45.8066368,-19.2718601],"max":[39.9496346,-40.2627983,-8.0718708]},{"bufferView":1,"byteOffset":92676,"componentType":5126,"count":576,"type":"VEC3"},{"bufferView":2,"byteOffset":63132,"componentType":5123,"count":1668,"type":"SCALAR"},{"bufferView":0,"byteOffset":99588,"componentType":5126,"count":576,"type":"VEC3","min":[10.2503538,-45.8066368,8.32813931],"max":[13.9496336,-40.2627983,19.5281296]},{"bufferView":1,"byteOffset":99588,"componentType":5126,"count":576,"type":"VEC3"},{"bufferView":2,"byteOffset":66468,"componentType":5123,"count":1668,"type":"SCALAR"},{"bufferView":0,"byteOffset":106500,"componentType":5126,"count":576,"type":"VEC3","min":[36.2503548,-45.8066368,8.32813931],"max":[39.9496346,-40.2627983,19.5281296]},{"bufferView":1,"byteOffset":106500,"componentType":5126,"count":576,"type":"VEC3"},{"bufferView":2,"byteOffset":69804,"componentType":5123,"count":1668,"type":"SCALAR"},{"bufferView":0,"byteOffset":113412,"componentType":5126,"count":1028,"type":"VEC3","min":[10.6024437,-45.4621887,-21.4718609],"max":[13.5999937,-42.4634056,-18.4718704]},{"bufferView":1,"byteOffset":113412,"componentType":5126,"count":1028,"type":"VEC3"},{"bufferView":2,"byteOffset":73140,"componentType":5123,"count":5658,"type":"SCALAR"},{"bufferView":0,"byteOffset":125748,"componentType":5126,"count":1028,"type":"VEC3","min":[36.6024437,-45.4621887,-21.4718609],"max":[39.5999947,-42.4634056,-18.4718704]},{"bufferView":1,"byteOffset":125748,"componentType":5126,"count":1028,"type":"VEC3"},{"bufferView":2,"byteOffset":84456,"componentType":5123,"count":5658,"type":"SCALAR"},{"bufferView":0,"byteOffset":138084,"componentType":5126,"count":1028,"type":"VEC3","min":[10.5999937,-45.4621887,18.7281399],"max":[13.5975437,-42.4634056,21.7281399]},{"bufferView":1,"byteOffset":138084,"componentType":5126,"count":1028,"type":"VEC3"},{"bufferView":2,"byteOffset":95772,"componentType":5123,"count":5658,"type":"SCALAR"},{"bufferView":0,"byteOffset":150420,"componentType":5126,"count":1028,"type":"VEC3","min":[36.5999947,-45.4621887,18.7281399],"max":[39.5975456,-42.4634056,21.7281399]},{"bufferView":1,"byteOffset":150420,"componentType":5126,"count":1028,"type":"VEC3"},{"bufferView":2,"byteOffset":107088,"componentType":5123,"count":5658,"type":"SCALAR"},{"bufferView":0,"byteOffset":162756,"componentType":5126,"count":2252,"type":"VEC3","min":[27.9399948,-54.1227951,-25.5518608],"max":[48.2599945,-33.8027954,-20.6718712]},{"bufferView":1,"byteOffset":162756,"componentType":5126,"count":2252,"type":"VEC3"},{"bufferView":2,"byteOffset":118404,"componentType":5123,"count":9924,"type":"SCALAR"},{"bufferView":0,"byteOffset":189780,"componentType":5126,"count":2252,"type":"VEC3","min":[1.93999362,-54.1227951,20.9281387],"max":[22.2599945,-33.8027954,25.8081303]},{"bufferView":1,"byteOffset":189780,"componentType":5126,"count":2252,"type":"VEC3"},{"bufferView":2,"byteOffset":138252,"componentType":5123,"count":9924,"type":"SCALAR"},{"bufferView":0,"byteOffset":216804,"componentType":5126,"count":2252,"type":"VEC3","min":[27.9399948,-54.1227951,20.9281387],"max":[48.2599945,-33.8027954,25.8081303]},{"bufferView":1,"byteOffset":216804,"componentType":5126,"count":2252,"type":"VEC3"},{"bufferView":2,"byteOffset":158100,"componentType":5123,"count":9924,"type":"SCALAR"},{"bufferView":0,"byteOffset":243828,"componentType":5126,"count":2516,"type":"VEC3","min":[1.93999362,-54.1227951,-25.5518608],"max":[22.2599945,-33.8027954,-20.6718712]},{"bufferView":1,"byteOffset":243828,"componentType":5126,"count":2516,"type":"VEC3"},{"bufferView":2,"byteOffset":177948,"componentType":5123,"count":10476,"type":"SCALAR"}],"materials":[{"pbrMetallicRoughness":{"baseColorFactor":[0.627451003,0.627451003,0.627451003,1],"metallicFactor":0},"doubleSided":true},{"pbrMetallicRoughness":{"baseColorFactor":[0.152941182,0.152941182,0.152941182,1],"metallicFactor":0},"doubleSided":true}],"meshes":[{"primitives":[{"attributes":{"POSITION":0,"NORMAL":1},"mode":4,"indices":2,"material":0}]},{"primitives":[{"attributes":{"POSITION":3,"NORMAL":4},"mode":4,"indices":5,"material":0}]},{"primitives":[{"attributes":{"POSITION":6,"NORMAL":7},"mode":4,"indices":8,"material":0}]},{"primitives":[{"attributes":{"POSITION":9,"NORMAL":10},"mode":4,"indices":11,"material":0}]},{"primitives":[{"attributes":{"POSITION":12,"NORMAL":13},"mode":4,"indices":14,"material":0}]},{"primitives":[{"attributes":{"POSITION":15,"NORMAL":16},"mode":4,"indices":17,"material":0}]},{"primitives":[{"attributes":{"POSITION":18,"NORMAL":19},"mode":4,"indices":20,"material":0}]},{"primitives":[{"attributes":{"POSITION":21,"NORMAL":22},"mode":4,"indices":23,"material":0}]},{"primitives":[{"attributes":{"POSITION":24,"NORMAL":25},"mode":4,"indices":26,"material":0}]},{"primitives":[{"attributes":{"POSITION":27,"NORMAL":28},"mode":4,"indices":29,"material":0}]},{"primitives":[{"attributes":{"POSITION":30,"NORMAL":31},"mode":4,"indices":32,"material":0}]},{"primitives":[{"attributes":{"POSITION":33,"NORMAL":34},"mode":4,"indices":35,"material":0}]},{"primitives":[{"attributes":{"POSITION":36,"NORMAL":37},"mode":4,"indices":38,"material":0}]},{"primitives":[{"attributes":{"POSITION":39,"NORMAL":40},"mode":4,"indices":41,"material":0}]},{"primitives":[{"attributes":{"POSITION":42,"NORMAL":43},"mode":4,"indices":44,"material":0}]},{"primitives":[{"attributes":{"POSITION":45,"NORMAL":46},"mode":4,"indices":47,"material":0}]},{"primitives":[{"attributes":{"POSITION":48,"NORMAL":49},"mode":4,"indices":50,"material":0}]},{"primitives":[{"attributes":{"POSITION":51,"NORMAL":52},"mode":4,"indices":53,"material":0}]},{"primitives":[{"attributes":{"POSITION":54,"NORMAL":55},"mode":4,"indices":56,"material":0}]},{"primitives":[{"attributes":{"POSITION":57,"NORMAL":58},"mode":4,"indices":59,"material":1}]},{"primitives":[{"attributes":{"POSITION":60,"NORMAL":61},"mode":4,"indices":62,"material":1}]},{"primitives":[{"attributes":{"POSITION":63,"NORMAL":64},"mode":4,"indices":65,"material":1}]},{"primitives":[{"attributes":{"POSITION":66,"NORMAL":67},"mode":4,"indices":68,"material":1}]}],"nodes":[{"mesh":0},{"mesh":1},{"mesh":2},{"mesh":3},{"mesh":4},{"mesh":5},{"mesh":6},{"mesh":7},{"mesh":8},{"mesh":9},{"mesh":10},{"mesh":11},{"mesh":12},{"mesh":13},{"mesh":14},{"mesh":15},{"mesh":16},{"mesh":17},{"mesh":18},{"mesh":19},{"mesh":20},{"mesh":21},{"mesh":22},{"name":"base_link","children":[0]},{"name":"f_r_clamp","children":[1]},{"name":"r_r_clamp","children":[2]},{"name":"f_l_clamp","children":[3]},{"name":"r_l_clamp","children":[4]},{"name":"Li-ion battery v3","children":[5]},{"name":"lidar v3","children":[6]},{"name":"lidar v3","children":[7]},{"name":"lidar v3","children":[8]},{"name":"lidar v3","children":[9]},{"name":"IP_Box v4","children":[10]},{"name":"f_r_Dc_motor","children":[11]},{"name":"r_r_Dc_motor","children":[12]},{"name":"f_l_Dc_motor","children":[13]},{"name":"r_l_Dc_motor","children":[14]},{"name":"f_r_hub","children":[15]},{"name":"r_r_hub","children":[16]},{"name":"f_l_hub","children":[17]},{"name":"r_l_hub","children":[18]},{"name":"r_r_wheel","children":[19]},{"name":"f_l_wheel","children":[20]},{"name":"r_l_wheel","children":[21]},{"name":"wheel_1 v3","children":[22]}],"scenes":[{"nodes":[23,24,25,26,27,28,29,30,31,32,33,34,35,36,37,38,39,40,41,42,43,44,45]}]}